<?xml version="1.0" encoding="UTF-8"?>
<svg id="Logo_symbol_w_o_guides" data-name="Logo symbol w/o guides" xmlns="http://www.w3.org/2000/svg" viewBox="0 0 1058.82 1235.29">
  <defs>
    <style>
      .cls-1 {
        fill: #fafefe;
      }

      .cls-2 {
        fill: #ff8c2d;
      }
    </style>
  </defs>
  <g id="Text">
    <path class="cls-1" d="M163.82,389.37c-64.33,0-109.41-46.83-109.41-113.79,0-67.83,44.2-114.66,107.66-114.66,64.77,0,105.91,43.33,105.91,110.72v13.05c0,1.74-1.41,3.15-3.15,3.15l-156.17.42c-1.87,0-3.33,1.62-3.08,3.47,4.78,35.78,24.75,53.87,59.11,53.87,28.24,0,47.15-10.56,53.97-29.71.47-1.32,1.69-2.24,3.08-2.24h43.28c1.98,0,3.48,1.81,3.03,3.75-10.51,45.02-49.29,71.96-104.24,71.96ZM162.51,204.68c-30.3,0-49.27,15.79-55.35,45.8-.39,1.91,1.1,3.65,3.04,3.65h101.68c1.74,0,3.16-1.42,3.08-3.16-1.41-27.99-21.64-46.3-52.44-46.3Z"/>
    <path class="cls-1" d="M268.13,168.46c0-1.76,1.43-3.19,3.19-3.19h25.03c1.76,0,3.19-1.43,3.19-3.19v-23.35c0-59.28,30.97-84.05,78.3-84.05,7.63,0,16.71.36,25.27,1.75,1.51.25,2.6,1.57,2.6,3.1v40.18c0,1.76-1.43,3.19-3.19,3.19h-15.84c-27.43,0-33.62,14.16-33.62,35.83v23.35c0,1.76,1.43,3.19,3.19,3.19h82.99c1.76,0,3.19-1.43,3.19-3.19v-23.35c0-59.28,30.97-84.05,75.21-84.05,8.03,0,16.78.36,25.27,1.75,1.51.25,2.6,1.57,2.6,3.1v40.18c0,1.76-1.43,3.19-3.19,3.19h-15.39c-24.33,0-30.97,14.16-30.97,35.83v23.35c0,1.76,1.43,3.19,3.19,3.19h136.96c1.76,0,3.19,1.43,3.19,3.19v212.16c0,1.76-1.43,3.19-3.19,3.19h-47.6c-1.76,0-3.19-1.43-3.19-3.19v-167.04c0-1.76-1.43-3.19-3.19-3.19h-82.99c-1.76,0-3.19,1.43-3.19,3.19v167.04c0,1.76-1.43,3.19-3.19,3.19h-47.15c-1.76,0-3.19-1.43-3.19-3.19v-167.04c0-1.76-1.43-3.19-3.19-3.19h-82.99c-1.76,0-3.19,1.43-3.19,3.19v167.04c0,1.76-1.43,3.19-3.19,3.19h-47.15c-1.76,0-3.19-1.43-3.19-3.19v-167.04c0-1.76-1.43-3.19-3.19-3.19h-25.03c-1.76,0-3.19-1.43-3.19-3.19v-38.75ZM612.35,109.69c-15.45,0-27.14-12.06-27.14-27.51,0-15.45,11.68-27.51,27.14-27.51s27.51,12.06,27.51,27.51c0,15.45-12.06,27.51-27.51,27.51Z"/>
    <path class="cls-1" d="M805.12,163.8c1.43.33,2.42,1.61,2.42,3.07v44.31c0,1.76-1.43,3.19-3.19,3.19h-16.72c-38.93,0-63.26,20.79-63.26,63.26v102.98c0,1.76-1.43,3.19-3.19,3.19h-47.59c-1.76,0-3.19-1.43-3.19-3.19v-211.72c0-1.76,1.43-3.19,3.19-3.19h44.71c1.68,0,3.07,1.3,3.18,2.97l1.98,28.47c.23,3.34,5.17,4.29,6.86,1.4,10.91-18.67,29.27-37.26,53.34-37.26,6.83,0,13.65.73,21.47,2.52Z"/>
    <path class="cls-1" d="M881.43,389.37c-45.95,0-73.96-26.7-73.96-67.4,0-39.83,28.88-64.77,80.09-68.71l61.85-4.6c1.65-.12,2.92-1.5,2.92-3.15v-1.89c0-29.32-17.51-41.14-44.64-41.14-30.02,0-47.33,11.92-48.9,32.73-.13,1.74-1.53,3.16-3.27,3.16h-39.21c-1.74,0-3.16-1.42-3.09-3.16,1.7-45.04,39.78-74.3,97.1-74.3,58.21,0,94.1,31.51,94.1,91.47v128.14c0,1.74-1.41,3.16-3.16,3.16h-40.79c-1.63,0-3-1.25-3.14-2.87l-2.52-27.83c-.3-3.29-5.45-4.27-7.29-1.53-12.86,19.18-37.95,37.92-66.09,37.92ZM898.94,349.1c32.82,0,53.83-19.69,53.83-52.95v-7.97c0-1.84-1.57-3.29-3.4-3.14l-41.68,3.24c-33.26,3.06-45.95,14-45.95,31.51,0,19.69,13.13,29.32,37.2,29.32Z"/>
  </g>
  <g>
    <path class="cls-2" d="M264.29,548.41c6.97,6.94,13.75,14.12,20.39,21.47H54.41v-132.26h1.4c77.15,11.77,145.79,48.32,208.48,110.79Z"/>
    <path class="cls-2" d="M473.53,1069.14c62.99,62.87,131.96,99.64,209.55,111.48H54.41v-604.26c113.64,27.67,181.63,140.56,258.74,268.61,47.56,78.98,96.74,160.65,160.38,224.17Z"/>
    <path class="cls-2" d="M634.21,844.97c42.52,70.61,86.35,143.36,140.65,203.39h-36.03c-148.38-.71-225.13-128.13-313.98-275.66-42.4-70.43-86.11-142.95-140.17-202.82h35.32c148.54,0,225.32,127.47,314.21,275.09Z"/>
    <path class="cls-2" d="M1004.41,1048.36v132.26h-.21c-77.61-11.81-146.61-48.59-209.6-111.48-6.74-6.73-13.31-13.67-19.74-20.78h229.55Z"/>
    <path class="cls-2" d="M1004.41,437.62v604c-113.5-28.14-181.43-140.98-258.49-268.93-47.61-79.05-96.86-160.81-160.56-224.28-62.71-62.46-131.32-99.01-208.48-110.79h627.53Z"/>
  </g>
</svg>