<?xml version="1.0" encoding="UTF-8"?>
<svg id="Logo_symbol_w_o_guides" data-name="Logo symbol w/o guides" xmlns="http://www.w3.org/2000/svg" viewBox="0 0 1952 1105">
  <defs>
    <style>
      .cls-1 {
        fill: #d0e7e2;
      }
    </style>
  </defs>
  <g id="Energy_logo" data-name="Energy logo">
    <g id="Effira">
      <path class="cls-1" d="M839.41,593.62c-67.81,0-115.33-49.36-115.33-119.94,0-71.5,46.6-120.87,113.49-120.87s111.64,45.67,111.64,116.71v13.75c0,1.83-1.48,3.32-3.32,3.32l-164.62.44c-1.97,0-3.51,1.71-3.25,3.66,5.04,37.71,26.09,56.78,62.31,56.78,29.77,0,49.7-11.13,56.9-31.32.49-1.39,1.78-2.36,3.25-2.36h45.62c2.09,0,3.67,1.91,3.19,3.95-11.07,47.45-51.95,75.86-109.88,75.86ZM838.02,398.94c-31.94,0-51.94,16.64-58.35,48.28-.41,2.01,1.16,3.85,3.21,3.85h107.18c1.84,0,3.33-1.49,3.24-3.33-1.48-29.5-22.81-48.8-55.28-48.8Z"/>
      <path class="cls-1" d="M949.36,360.75c0-1.86,1.5-3.36,3.36-3.36h26.39c1.86,0,3.36-1.51,3.36-3.36v-24.62c0-62.49,32.64-88.6,82.54-88.6,8.04,0,17.62.38,26.64,1.85,1.59.26,2.74,1.65,2.74,3.26v42.36c0,1.86-1.5,3.36-3.36,3.36h-16.69c-28.91,0-35.44,14.92-35.44,37.77v24.62c0,1.86,1.51,3.36,3.36,3.36h87.48c1.86,0,3.36-1.51,3.36-3.36v-24.62c0-62.49,32.64-88.6,79.28-88.6,8.46,0,17.69.38,26.64,1.85,1.59.26,2.74,1.65,2.74,3.27v42.36c0,1.86-1.51,3.36-3.36,3.36h-16.23c-25.65,0-32.64,14.92-32.64,37.77v24.62c0,1.86,1.5,3.36,3.36,3.36h144.37c1.86,0,3.36,1.5,3.36,3.36v223.64c0,1.86-1.51,3.36-3.36,3.36h-50.17c-1.86,0-3.36-1.51-3.36-3.36v-176.08c0-1.86-1.5-3.36-3.36-3.36h-87.48c-1.86,0-3.36,1.5-3.36,3.36v176.08c0,1.86-1.51,3.36-3.36,3.36h-49.71c-1.86,0-3.36-1.51-3.36-3.36v-176.08c0-1.86-1.51-3.36-3.36-3.36h-87.48c-1.86,0-3.36,1.5-3.36,3.36v176.08c0,1.86-1.5,3.36-3.36,3.36h-49.71c-1.86,0-3.36-1.51-3.36-3.36v-176.08c0-1.86-1.51-3.36-3.36-3.36h-26.39c-1.86,0-3.36-1.51-3.36-3.36v-40.84ZM1312.2,298.81c-16.29,0-28.6-12.71-28.6-29s12.32-29,28.6-29c16.29,0,29,12.71,29,29,0,16.29-12.71,29-29,29Z"/>
      <path class="cls-1" d="M1515.41,355.85c1.5.34,2.55,1.69,2.55,3.24v46.71c0,1.86-1.51,3.36-3.36,3.36h-17.62c-41.04,0-66.69,21.92-66.69,66.69v108.56c0,1.86-1.5,3.36-3.36,3.36h-50.17c-1.86,0-3.36-1.51-3.36-3.36v-223.18c0-1.86,1.5-3.36,3.36-3.36h47.13c1.77,0,3.23,1.37,3.35,3.13l2.08,30.02c.25,3.52,5.45,4.52,7.23,1.47,11.5-19.68,30.85-39.28,56.23-39.28,7.19,0,14.39.77,22.63,2.65Z"/>
      <path class="cls-1" d="M1595.85,593.62c-48.44,0-77.97-28.14-77.97-71.04,0-41.98,30.45-68.28,84.42-72.43l65.2-4.85c1.74-.13,3.08-1.58,3.08-3.32v-1.99c0-30.91-18.45-43.36-47.06-43.36-31.65,0-49.89,12.56-51.55,34.5-.14,1.83-1.61,3.33-3.45,3.33h-41.33c-1.84,0-3.33-1.5-3.26-3.33,1.79-47.48,41.94-78.32,102.35-78.32,61.36,0,99.19,33.21,99.19,96.42v135.07c0,1.84-1.49,3.33-3.33,3.33h-43c-1.72,0-3.16-1.31-3.31-3.03l-2.65-29.34c-.31-3.46-5.74-4.5-7.68-1.61-13.56,20.22-40,39.97-69.66,39.97ZM1614.3,551.18c34.6,0,56.74-20.76,56.74-55.82v-8.4c0-1.94-1.65-3.47-3.58-3.31l-43.93,3.41c-35.06,3.23-48.44,14.76-48.44,33.21,0,20.76,13.84,30.91,39.21,30.91Z"/>
    </g>
    <path id="Energy" class="cls-1" d="M911.28,797.29c-45.03,0-75.15-32.34-75.15-80.54s29.81-80.86,73.56-80.86,69.76,29.49,69.76,72.93v7.09c0,2.04-1.65,3.69-3.69,3.69h-114.46c-2.15,0-3.85,1.83-3.68,3.97,2.77,34.97,22.19,55.01,53.98,55.01,23.99,0,39.84-9.89,46.15-28.56.51-1.5,1.91-2.52,3.49-2.52h13.32c2.5,0,4.28,2.44,3.52,4.82-9.32,29.25-32.49,44.96-66.8,44.96ZM909.7,654.6c-27.46,0-46.01,17.22-51.02,44.84-.41,2.25,1.36,4.31,3.64,4.31h91.46c2.14,0,3.81-1.81,3.69-3.95-1.63-27.28-20.22-45.2-47.76-45.2ZM1023.12,793.48h-14.5c-2.04,0-3.69-1.65-3.69-3.69v-146.09c0-2.04,1.65-3.69,3.69-3.69h12.06c1.87,0,3.44,1.4,3.66,3.25l1.56,13.13c.39,3.29,4.57,4.43,6.59,1.81,11.06-14.36,28.48-22.31,47.27-22.31,42.17,0,59.61,25.05,59.61,63.74v90.17c0,2.04-1.65,3.69-3.69,3.69h-14.5c-2.04,0-3.69-1.65-3.69-3.69v-85.41c0-35.83-16.17-48.52-41.54-48.52-31.39,0-49.15,22.83-49.15,57.39v76.53c0,2.04-1.65,3.69-3.69,3.69ZM1237.83,797.29c-45.03,0-75.15-32.34-75.15-80.54s29.81-80.86,73.56-80.86,69.76,29.49,69.76,72.93v7.09c0,2.04-1.65,3.69-3.69,3.69h-114.46c-2.15,0-3.85,1.83-3.68,3.97,2.77,34.97,22.19,55.01,53.98,55.01,23.99,0,39.84-9.89,46.15-28.56.51-1.5,1.91-2.52,3.49-2.52h13.32c2.5,0,4.28,2.44,3.52,4.82-9.32,29.25-32.49,44.96-66.8,44.96ZM1236.25,654.6c-27.45,0-46.01,17.22-51.02,44.84-.41,2.25,1.36,4.31,3.64,4.31h91.46c2.14,0,3.81-1.81,3.69-3.95-1.63-27.28-20.22-45.2-47.76-45.2ZM1411.7,641.1v12.97c0,2.04-1.65,3.69-3.69,3.69h-8.36c-28.22,0-46.29,19.02-46.29,48.2v83.83c0,2.04-1.65,3.69-3.69,3.69h-14.5c-2.04,0-3.69-1.65-3.69-3.69v-146.09c0-2.04,1.65-3.69,3.69-3.69h13.47c1.94,0,3.55,1.51,3.68,3.44l.52,7.85c.23,3.38,4.52,4.7,6.59,2.01,8.04-10.43,21.43-16.8,38-16.8,3.83,0,7.24.21,11.24.95,1.75.32,3.03,1.85,3.03,3.63ZM1418.02,712.31c0-41.86,26.95-76.42,71.98-76.42,22.18,0,39.96,8.58,50.97,24.45,1.97,2.84,6.43,1.56,6.68-1.89l1.08-15.01c.14-1.93,1.75-3.42,3.68-3.42h11.9c2.04,0,3.69,1.65,3.69,3.69v145.02c0,45.66-29.17,75.47-74.2,75.47-37.73,0-64.65-20.44-72.09-54.87-.49-2.28,1.28-4.43,3.62-4.43h14.46c1.7,0,3.18,1.17,3.58,2.82,5.63,23.02,24.23,36.5,50.75,36.5,31.39,0,52.32-21.25,52.32-53.27v-23.53c0-3.51-4.45-5.04-6.6-2.26-11.61,15.01-29.81,23.57-51.43,23.57-43.76,0-70.39-34.56-70.39-76.42ZM1439.9,711.99c0,31.39,19.34,57.08,51.68,57.08s52.95-24.1,52.95-57.08-19.03-56.76-52.64-56.76-52,25.68-52,56.76ZM1588.61,857.38v-11.38c0-2.04,1.65-3.69,3.69-3.69h13.12c13.32,0,26.63-.95,34.24-21.56l6.18-16.78c.31-.84.3-1.76-.02-2.59l-59.74-156.36c-.92-2.42.86-5.01,3.45-5.01h15.22c1.54,0,2.93.96,3.46,2.41l45.08,121.94c1.19,3.23,5.76,3.21,6.93-.02l44.2-121.9c.53-1.46,1.92-2.43,3.47-2.43h14.61c2.57,0,4.36,2.57,3.46,4.98l-68.54,183.69c-8.88,24.1-23.78,33.93-45.66,33.93-7.88,0-14.14-.47-20.16-1.6-1.74-.33-2.99-1.86-2.99-3.63Z"/>
    <g id="Symbol">
      <path class="cls-1" d="M780.81,792.11c0,.6-.47,1.1-1.06,1.1h-155.43c-58.28-.24-108.44-22.15-153.35-66.98-36.84-36.77-65.31-84.04-92.84-129.76-44.91-74.58-84.48-140.27-150.98-155.78-.77-.18-1.33-.89-1.33-1.7,0-.97.76-1.76,1.7-1.76h134.13c31.3,34.66,56.6,76.64,81.14,117.41,51.43,85.4,95.86,159.17,181.75,159.57h20.86c3.73,4.12,7.53,8.13,11.43,12.03,36.94,36.88,77.44,58.25,123.09,64.8.52.07.91.53.91,1.08Z"/>
      <path class="cls-1" d="M780.81,712.36c0,1.01-.79,1.84-1.77,1.84h-133.65c-31.43-34.75-56.8-76.86-81.42-117.73-51.46-85.45-95.9-159.24-181.89-159.24h-20.44c-3.85-4.25-7.77-8.41-11.8-12.43-36.96-36.82-77.49-58.09-123.15-64.5-.5-.07-.87-.51-.87-1.03,0-.59.45-1.06,1.01-1.06h155.26c58.39,0,108.63,21.78,153.61,66.58,36.88,36.74,65.38,84.07,92.95,129.83,44.87,74.5,84.4,140.15,150.79,155.96.8.19,1.38.92,1.38,1.78Z"/>
    </g>
  </g>
</svg>