<?xml version="1.0" encoding="UTF-8"?>
<svg id="Logo_symbol_w_o_guides" data-name="Logo symbol w/o guides" xmlns="http://www.w3.org/2000/svg" viewBox="0 0 1112.33 1390.42">
  <defs>
    <style>
      .cls-1 {
        fill: #ff8c2d;
      }
    </style>
  </defs>
  <g id="Text">
    <path class="cls-1" d="M174.23,1275.38c-67.21,0-114.3-48.92-114.3-118.87,0-70.87,46.18-119.79,112.48-119.79,67.67,0,110.65,45.26,110.65,115.67v13.63c0,1.82-1.47,3.29-3.29,3.29l-163.15.44c-1.95,0-3.48,1.69-3.22,3.63,5,37.38,25.86,56.27,61.75,56.27,29.5,0,49.25-11.03,56.39-31.04.49-1.37,1.76-2.34,3.22-2.34h45.21c2.07,0,3.63,1.9,3.16,3.91-10.98,47.03-51.49,75.18-108.9,75.18ZM172.86,1082.44c-31.66,0-51.48,16.49-57.83,47.85-.4,1.99,1.15,3.82,3.18,3.82h106.22c1.82,0,3.3-1.48,3.21-3.3-1.47-29.24-22.6-48.37-54.79-48.37Z"/>
    <path class="cls-1" d="M283.2,1044.59c0-1.84,1.49-3.33,3.33-3.33h26.15c1.84,0,3.33-1.49,3.33-3.33v-24.4c0-61.93,32.35-87.81,81.81-87.81,7.97,0,17.46.38,26.4,1.83,1.58.26,2.71,1.64,2.71,3.23v41.98c0,1.84-1.49,3.33-3.33,3.33h-16.54c-28.65,0-35.13,14.79-35.13,37.44v24.4c0,1.84,1.49,3.33,3.33,3.33h86.7c1.84,0,3.33-1.49,3.33-3.33v-24.4c0-61.93,32.35-87.81,78.57-87.81,8.39,0,17.53.38,26.4,1.83,1.58.26,2.71,1.64,2.71,3.24v41.98c0,1.84-1.49,3.33-3.33,3.33h-16.08c-25.42,0-32.35,14.79-32.35,37.44v24.4c0,1.84,1.49,3.33,3.33,3.33h143.09c1.84,0,3.33,1.49,3.33,3.33v221.65c0,1.84-1.49,3.33-3.33,3.33h-49.72c-1.84,0-3.33-1.49-3.33-3.33v-174.51c0-1.84-1.49-3.33-3.33-3.33h-86.7c-1.84,0-3.33,1.49-3.33,3.33v174.51c0,1.84-1.49,3.33-3.33,3.33h-49.26c-1.84,0-3.33-1.49-3.33-3.33v-174.51c0-1.84-1.49-3.33-3.33-3.33h-86.7c-1.84,0-3.33,1.49-3.33,3.33v174.51c0,1.84-1.49,3.33-3.33,3.33h-49.26c-1.84,0-3.33-1.49-3.33-3.33v-174.51c0-1.84-1.49-3.33-3.33-3.33h-26.15c-1.84,0-3.33-1.49-3.33-3.33v-40.48ZM642.81,983.2c-16.14,0-28.35-12.6-28.35-28.74,0-16.14,12.21-28.74,28.35-28.74s28.74,12.6,28.74,28.74c0,16.14-12.6,28.74-28.74,28.74Z"/>
    <path class="cls-1" d="M844.2,1039.73c1.49.34,2.53,1.68,2.53,3.21v46.29c0,1.84-1.49,3.33-3.33,3.33h-17.47c-40.67,0-66.09,21.72-66.09,66.09v107.59c0,1.84-1.49,3.33-3.33,3.33h-49.72c-1.84,0-3.33-1.49-3.33-3.33v-221.19c0-1.84,1.49-3.33,3.33-3.33h46.71c1.75,0,3.2,1.35,3.32,3.1l2.06,29.75c.24,3.49,5.4,4.48,7.16,1.46,11.4-19.51,30.58-38.93,55.72-38.93,7.13,0,14.26.76,22.43,2.63Z"/>
    <path class="cls-1" d="M923.93,1275.38c-48.01,0-77.27-27.89-77.27-70.41,0-41.61,30.18-67.67,83.67-71.78l64.62-4.8c1.72-.13,3.05-1.56,3.05-3.29v-1.97c0-30.63-18.29-42.98-46.64-42.98-31.37,0-49.45,12.45-51.09,34.19-.14,1.81-1.6,3.3-3.42,3.3h-40.96c-1.82,0-3.3-1.49-3.23-3.3,1.77-47.05,41.56-77.62,101.44-77.62,60.81,0,98.3,32.92,98.3,95.56v133.87c0,1.82-1.48,3.3-3.3,3.3h-42.61c-1.71,0-3.13-1.3-3.28-3l-2.63-29.07c-.31-3.43-5.69-4.46-7.61-1.6-13.44,20.04-39.65,39.61-69.04,39.61ZM942.22,1233.32c34.29,0,56.24-20.57,56.24-55.32v-8.33c0-1.92-1.64-3.43-3.55-3.28l-43.54,3.38c-34.75,3.2-48.01,14.63-48.01,32.92,0,20.57,13.72,30.63,38.86,30.63Z"/>
  </g>
  <g id="Symbol">
    <path class="cls-1" d="M998.03,806.15c0,.96-.75,1.75-1.69,1.75h-247.57c-92.82-.38-172.72-35.28-244.26-106.69-58.68-58.57-104.02-133.86-147.88-206.69-71.53-118.79-134.55-223.43-240.48-248.13-1.23-.28-2.11-1.41-2.11-2.71,0-1.54,1.21-2.8,2.7-2.8h213.65c49.85,55.2,90.15,122.07,129.24,187,81.92,136.03,152.68,253.52,289.5,254.17h33.22c5.93,6.56,11.99,12.95,18.2,19.16,58.84,58.74,123.35,92.77,196.05,103.21.83.11,1.45.85,1.45,1.72Z"/>
    <path class="cls-1" d="M998.03,679.13c0,1.61-1.26,2.93-2.82,2.93h-212.87c-50.07-55.34-90.47-122.42-129.68-187.53-81.96-136.11-152.75-253.64-289.71-253.64h-32.56c-6.13-6.77-12.37-13.39-18.8-19.8-58.87-58.65-123.42-92.53-196.16-102.73-.79-.11-1.39-.81-1.39-1.64,0-.93.72-1.68,1.61-1.68h247.3c93,0,173.02,34.69,244.67,106.05,58.74,58.53,104.14,133.91,148.04,206.8,71.47,118.66,134.43,223.23,240.18,248.41,1.28.31,2.2,1.47,2.2,2.83Z"/>
  </g>
</svg>