<?xml version="1.0" encoding="UTF-8"?>
<svg id="Logo_symbol_w_o_guides" data-name="Logo symbol w/o guides" xmlns="http://www.w3.org/2000/svg" viewBox="0 0 666 521">
  <defs>
    <style>
      .cls-1 {
        fill: #ff8c2d;
      }
    </style>
  </defs>
  <g id="Symbol">
    <path class="cls-1" d="M555,433.62c0,.48-.38.88-.85.88h-124.35c-46.62-.19-86.75-17.72-122.68-53.58-29.47-29.42-52.25-67.23-74.27-103.81-35.92-59.66-67.58-112.22-120.78-124.63-.62-.14-1.06-.71-1.06-1.36,0-.77.61-1.41,1.36-1.41h107.31c25.04,27.73,45.28,61.31,64.91,93.92,41.15,68.32,76.69,127.33,145.4,127.66h16.68c2.98,3.3,6.02,6.51,9.14,9.62,29.55,29.5,61.95,46.6,98.47,51.84.42.06.73.43.73.87Z"/>
    <path class="cls-1" d="M555,369.82c0,.81-.63,1.47-1.42,1.47h-106.92c-25.15-27.8-45.44-61.49-65.13-94.19-41.17-68.36-76.72-127.4-145.51-127.4h-16.36c-3.08-3.4-6.21-6.73-9.44-9.94-29.57-29.46-61.99-46.48-98.52-51.6-.4-.06-.7-.4-.7-.82,0-.47.36-.85.81-.85h124.21c46.71,0,86.9,17.42,122.89,53.27,29.5,29.4,52.31,67.26,74.36,103.87,35.9,59.6,67.52,112.12,120.63,124.77.64.16,1.1.74,1.1,1.42Z"/>
  </g>
</svg>