<?xml version="1.0" encoding="UTF-8"?>
<svg id="Logo_symbol_w_o_guides" data-name="Logo symbol w/o guides" xmlns="http://www.w3.org/2000/svg" viewBox="0 0 1929 837">
  <defs>
    <style>
      .cls-1 {
        fill: #063233;
      }

      .cls-2 {
        fill: #ff8c2d;
      }
    </style>
  </defs>
  <g id="Logo">
    <g id="Text">
      <path class="cls-1" d="M817.51,595.15c-67.81,0-115.33-49.36-115.33-119.94,0-71.5,46.6-120.87,113.49-120.87,68.28,0,111.64,45.67,111.64,116.71v13.75c0,1.83-1.48,3.32-3.32,3.32l-164.62.44c-1.97,0-3.51,1.71-3.25,3.66,5.04,37.71,26.09,56.78,62.31,56.78,29.77,0,49.7-11.13,56.9-31.32.49-1.39,1.78-2.36,3.25-2.36h45.62c2.09,0,3.67,1.91,3.19,3.95-11.07,47.45-51.95,75.86-109.88,75.86ZM816.13,400.48c-31.94,0-51.94,16.64-58.35,48.28-.41,2.01,1.16,3.85,3.21,3.85h107.18c1.84,0,3.33-1.49,3.24-3.33-1.48-29.5-22.81-48.8-55.28-48.8Z"/>
      <path class="cls-1" d="M927.46,362.29c0-1.86,1.5-3.36,3.36-3.36h26.39c1.86,0,3.36-1.51,3.36-3.36v-24.62c0-62.49,32.64-88.6,82.54-88.6,8.04,0,17.62.38,26.64,1.85,1.59.26,2.74,1.65,2.74,3.26v42.36c0,1.86-1.5,3.36-3.36,3.36h-16.69c-28.91,0-35.44,14.92-35.44,37.77v24.62c0,1.86,1.51,3.36,3.36,3.36h87.48c1.86,0,3.36-1.51,3.36-3.36v-24.62c0-62.49,32.64-88.6,79.28-88.6,8.46,0,17.69.38,26.64,1.85,1.59.26,2.74,1.65,2.74,3.27v42.36c0,1.86-1.51,3.36-3.36,3.36h-16.23c-25.65,0-32.64,14.92-32.64,37.77v24.62c0,1.86,1.5,3.36,3.36,3.36h144.37c1.86,0,3.36,1.5,3.36,3.36v223.64c0,1.86-1.51,3.36-3.36,3.36h-50.17c-1.86,0-3.36-1.51-3.36-3.36v-176.08c0-1.86-1.5-3.36-3.36-3.36h-87.48c-1.86,0-3.36,1.5-3.36,3.36v176.08c0,1.86-1.51,3.36-3.36,3.36h-49.71c-1.86,0-3.36-1.51-3.36-3.36v-176.08c0-1.86-1.51-3.36-3.36-3.36h-87.48c-1.86,0-3.36,1.5-3.36,3.36v176.08c0,1.86-1.5,3.36-3.36,3.36h-49.71c-1.86,0-3.36-1.51-3.36-3.36v-176.08c0-1.86-1.51-3.36-3.36-3.36h-26.39c-1.86,0-3.36-1.51-3.36-3.36v-40.84ZM1290.31,300.35c-16.29,0-28.6-12.71-28.6-29,0-16.29,12.32-29,28.6-29s29,12.71,29,29c0,16.29-12.71,29-29,29Z"/>
      <path class="cls-1" d="M1493.51,357.38c1.5.34,2.55,1.69,2.55,3.24v46.71c0,1.86-1.51,3.36-3.36,3.36h-17.62c-41.04,0-66.69,21.92-66.69,66.69v108.56c0,1.86-1.5,3.36-3.36,3.36h-50.17c-1.86,0-3.36-1.51-3.36-3.36v-223.18c0-1.86,1.5-3.36,3.36-3.36h47.13c1.77,0,3.23,1.37,3.35,3.13l2.08,30.02c.25,3.52,5.45,4.52,7.23,1.47,11.5-19.68,30.85-39.28,56.23-39.28,7.19,0,14.39.77,22.63,2.65Z"/>
      <path class="cls-1" d="M1573.95,595.15c-48.44,0-77.97-28.14-77.97-71.04,0-41.98,30.45-68.28,84.42-72.43l65.2-4.85c1.74-.13,3.08-1.58,3.08-3.32v-1.99c0-30.91-18.45-43.36-47.06-43.36-31.65,0-49.89,12.56-51.55,34.5-.14,1.83-1.61,3.33-3.45,3.33h-41.33c-1.84,0-3.33-1.5-3.26-3.33,1.79-47.48,41.94-78.32,102.35-78.32,61.36,0,99.19,33.21,99.19,96.42v135.07c0,1.84-1.49,3.33-3.33,3.33h-43c-1.72,0-3.16-1.31-3.31-3.03l-2.65-29.34c-.31-3.46-5.74-4.5-7.68-1.61-13.56,20.22-40,39.97-69.66,39.97ZM1592.4,552.71c34.6,0,56.74-20.76,56.74-55.82v-8.4c0-1.94-1.65-3.47-3.58-3.31l-43.93,3.41c-35.06,3.23-48.44,14.76-48.44,33.21,0,20.76,13.84,30.91,39.21,30.91Z"/>
    </g>
    <g id="Symbol">
      <path class="cls-2" d="M668.14,587.97c0,.48-.38.88-.85.88h-123.99c-46.49-.19-86.5-17.67-122.33-53.43-29.39-29.33-52.1-67.04-74.06-103.51-35.82-59.49-67.39-111.9-120.44-124.27-.61-.14-1.06-.71-1.06-1.36,0-.77.61-1.4,1.35-1.4h107c24.96,27.65,45.15,61.14,64.73,93.65,41.03,68.12,76.47,126.97,144.99,127.29h16.64c2.97,3.29,6.01,6.49,9.11,9.6,29.47,29.42,61.78,46.46,98.19,51.69.42.06.72.42.72.86Z"/>
      <path class="cls-2" d="M668.14,524.35c0,.81-.63,1.47-1.41,1.47h-106.61c-25.07-27.72-45.31-61.31-64.95-93.92-41.05-68.17-76.5-127.03-145.09-127.03h-16.31c-3.07-3.39-6.2-6.71-9.41-9.91-29.48-29.37-61.81-46.34-98.24-51.45-.4-.06-.7-.4-.7-.82,0-.47.36-.84.81-.84h123.85c46.58,0,86.65,17.37,122.54,53.11,29.42,29.31,52.16,67.06,74.14,103.57,35.79,59.43,67.32,111.8,120.29,124.41.64.16,1.1.74,1.1,1.42Z"/>
    </g>
  </g>
</svg>