<svg viewBox="0 0 80.38 32" xmlns="http://www.w3.org/2000/svg"><g fill="#1a1a1a"><g fill-rule="evenodd"><path d="m34.79 0h5.78l-4.16 21.41h-5.78z"/><path d="m42.64 0h5.96l1.29 14.76 7.06-14.76h5.78l-11.08 21.41h-6.38z"/><path d="m68.38 4.49h-5.42l.87-4.49h16.55l-.87 4.49h-5.41l-3.3 16.92h-5.72z"/></g><path d="m29.95 0h-25.6l-.09.44-3.95 20.32-.13.64h26.26l.09-.44 3.95-20.31.13-.65zm-27.52 19.52 4.09-4.56h16.11l2.27 4.56zm7.45-8.3h10.88l1.37 2.75h-14.72zm-1.22-3.82h14.77l-2.48 2.81h-10.87l-1.41-2.81zm15.66-1h-16.16l-2.28-4.53h22.44l-4 4.54z"/><path d="m0 25.9h1.42l.73 4.19 2.35-4.19h1.49l-3.57 6.05h-1.17l-1.23-6.05z"/><path d="m8.12 25.85h1.27l1.41 6.05h-1.36l-.29-1.35h-2.54l-.81 1.35h-1.43zm-.6-1.6h1.25l-.22 1.09h-1.25zm1.39 5.14-.42-1.98-1.17 1.98h1.6zm.48-5.14h1.25l-.22 1.09h-1.25z"/><path d="m14.3 29.98h-.99l-.37 1.92h-1.32l1.16-6.01h2.19c.89 0 1.52.2 1.95.6.32.3.52.72.55 1.21.04.58-.12 1.07-.44 1.42-.21.23-.59.55-1.34.72l1.18 2.05h-1.5l-1.07-1.92zm.42-1.17c.52 0 .94-.13 1.18-.39.14-.15.22-.36.2-.61-.02-.21-.09-.35-.23-.48-.18-.16-.47-.25-.89-.25h-1.11l-.33 1.73z"/><path d="m19.29 25.9h1.37l1.06 2.54 2.05-2.54h1.53l-1.16 6.01h-1.34l.75-3.92-2.16 2.57h-.03l-1.15-2.54-.76 3.9h-1.32l1.16-6.01z"/><path d="m26.82 25.9h4.49l-.23 1.18h-3.18l-.23 1.23h2.79l-.23 1.16h-2.79l-.25 1.27h3.23l-.23 1.18h-4.53l1.16-6.01z"/><path d="m32.96 25.9h1.91c.86 0 1.46.17 1.94.61.33.31.52.71.56 1.24.05.63-.14 1.14-.5 1.53-.49.53-1.3.82-2.25.82h-1.14l-.35 1.82h-1.32l1.16-6.01zm1.95 1.19h-.86l-.35 1.84h.9c.52 0 .93-.14 1.16-.4.17-.18.24-.4.22-.68-.01-.2-.1-.37-.23-.5-.19-.18-.45-.27-.84-.27z"/><path d="m38.16 29.97c-.02-.3 0-.63.07-.96l.6-3.12h1.32l-.62 3.24c-.04.21-.06.4-.05.65.04.59.44 1 1.12 1 .39 0 .71-.13.95-.38.24-.26.41-.63.5-1.12l.66-3.39h1.32l-.69 3.58c-.15.77-.4 1.37-.79 1.79-.45.49-1.1.74-1.99.74-1.39 0-2.31-.75-2.4-2.03z"/><path d="m45.53 25.9h1.37l1.06 2.54 2.05-2.54h1.53l-1.16 6.01h-1.34l.75-3.92-2.16 2.57h-.03l-1.15-2.54-.76 3.9h-1.32l1.16-6.01z"/><path d="m53.06 25.9h1.91c.86 0 1.46.17 1.94.61.33.31.52.71.56 1.24.05.63-.14 1.14-.5 1.53-.49.53-1.3.82-2.25.82h-1.14l-.35 1.82h-1.32l1.16-6.01zm1.95 1.19h-.86l-.35 1.84h.9c.52 0 .93-.14 1.16-.4.17-.18.24-.4.22-.68-.01-.2-.1-.37-.23-.5-.19-.18-.45-.27-.84-.27z"/><path d="m60.5 25.85h1.27l1.41 6.05h-1.36l-.29-1.35h-2.54l-.81 1.35h-1.43zm.79 3.54-.42-1.98-1.17 1.98h1.6z"/><path d="m66.68 29.98h-.99l-.37 1.92h-1.32l1.16-6.01h2.19c.89 0 1.52.2 1.95.6.32.3.52.72.55 1.21.04.58-.12 1.07-.44 1.42-.21.23-.59.55-1.34.72l1.18 2.05h-1.5l-1.07-1.92zm.42-1.17c.52 0 .94-.13 1.18-.39.14-.15.22-.36.2-.61-.02-.21-.09-.35-.23-.48-.18-.16-.47-.25-.89-.25h-1.11l-.33 1.73z"/></g></svg>