<?xml version="1.0" encoding="UTF-8"?>
<svg id="Layer_1" data-name="Layer 1" xmlns="http://www.w3.org/2000/svg" viewBox="0 0 120.800399780273438 26.860599517822266">
  <defs>
    <style>
      .cls-1 { fill: #ed1c24; }
      .cls-2, .cls-3 { fill: #231f20; }
      .cls-4 { fill: #0c5ba6; }
      .cls-5 { fill: #e90e8b; isolation: isolate; opacity: .200000002980232; }
      .cls-3 { fill-rule: evenodd; }
    </style>
  </defs>
  <path class="cls-2" d="M0,9.974200248718262l.968999981880188,.000300407409668-.425899982452393,2.872900009155273,1.070999979972839,.000300407409668,.425899982452393-2.872800827026367,.968999862670898,.000300407409668,.153300046920776-1.020000457763672-3.009000062942505-.000900268554688-.153299808502197,1.019900321960449Zm3.025099992752075,2.87399959564209l.95199990272522,.000300407409668,.221399784088135-1.444899559020996c.05109977722168-.357000350952148,.170199871063232-.577899932861328,.459199905395508-.577899932861328,.271999835968018,.000100135803223,.288899898529053,.255100250244141,.254799842834473,.527099609375l-.221499919891357,1.49590015411377,.952000141143799,.000300407409668,.255499839782715-1.699899673461914c.119400501251221-.782001495361328-.118499279022217-1.224101066589355-.747499465942383-1.224301338195801-.322999954223633-.000100135803223-.560999870300293,.152799606323242-.799099922180176,.441800117492676l.204400062561035-1.410900115966797-.952000141143799-.000300407409668c0-.000099182128906-.579200029373169,3.892800331115723-.579200029373169,3.892800331115723Z"/>
  <path class="cls-3" d="M7.190700054168701,11.098400115966797c.05109977722168-.305999755859375,.238200187683105-.492899894714355,.5100998878479-.492799758911133,.221000194549561,.000100135803223,.390899658203125,.238100051879883,.339799880981445,.493100166320801l-.849899768829346-.000300407409668Zm1.733800411224365,.57859992980957c.170299530029297-1.020000457763672-.254500389099121-1.751099586486816-1.138500690460205-1.751399993896484-.764999866485596-.000200271606445-1.445199966430664,.594599723815918-1.581500053405762,1.529500007629395-.153299808502197,.951999664306641,.356599807739258,1.462100028991699,1.138599872589111,1.462300300598145,.560999870300293,.000200271606445,1.190099716186523-.237600326538086,1.462300300598145-.934599876403809l-.901000022888184-.000300407409668c-.085100173950195,.170000076293945-.238100051879883,.254899978637695-.39109992980957,.254899978637695-.255000114440918-.000100135803223-.441900253295898-.221099853515625-.390799999237061-.561100006103516,0,.000100135803223,1.802000522613525,.000699996948242,1.802000522613525,.000699996948242Z"/>
  <path class="cls-2" d="M9.128100395202637,12.850000381469727l.951999664306641,.000300407409668,.153300285339355-.986000061035156c.085200309753418-.612000465393066,.323300361633301-.832900047302246,.714300155639648-.832799911499023,.067999839782715,0,.13599967956543,.017000198364258,.187000274658203,.034099578857422l.170299530029297-1.121899604797363c-.034000396728516,0-.085000038146973-.017000198364258-.119000434875488-.017000198364258-.37399959564209-.000100135803223-.62909984588623,.203800201416016-.833199501037598,.645700454711914h-.017000198364258l.085200309753418-.578000068664551-.867000579833984-.000301361083984-.425899505615234,2.855900764465332Zm2.125,.000699996948242l.951999664306641,.000300407409668,.204400062561035-1.393899917602539c.05109977722168-.340000152587891,.153200149536133-.628999710083008,.425199508666992-.628899574279785,.255000114440918,.000100135803223,.288900375366211,.170100212097168,.237799644470215,.578100204467773l-.221400260925293,1.444900512695312,.951999664306641,.000300407409668,.204400062561035-1.393899917602539c.05109977722168-.340000152587891,.153200149536133-.628999710083008,.425200462341309-.628899574279785,.255000114440918,.000100135803223,.288900375366211,.170100212097168,.237799644470215,.578100204467773l-.221400260925293,1.444900512695312,.951999664306641,.000300407409668,.255499839782715-1.682900428771973c.119199752807617-.765000343322754-.033599853515625-1.241000175476074-.730600357055664-1.241199493408203-.357000350952148-.000100135803223-.646100044250488,.1697998046875-.901200294494629,.526700019836426-.067899703979492-.305999755859375-.27180004119873-.527099609375-.696800231933594-.527199745178223-.340000152587891-.000100135803223-.680100440979004,.288800239562988-.833200454711914,.509699821472168l.068099975585938-.425000190734863-.866999626159668-.000300407409668-.44279670715332,2.838896751403809Z"/>
  <path class="cls-3" d="M16.795099258422852,12.852299690246582l.425899505615234-2.838900566101074-.951999664306641-.000300407409668-.425900459289551,2.838900566101074,.952000617980957,.000300407409668Zm-.474998474121094-3.196099281311035l.951999664306641,.000300407409668,.119199752807617-.798999786376953-.951999664306641-.000300407409668-.119199752807617,.798999786376953Zm3.653999328613281,3.197099685668945v-.050999641418457c-.101999282836914-.119000434875488-.101900100708008-.203999519348145-.067899703979492-.357000350952148l.204399108886719-1.325900077819824c.102199554443359-.680000305175781,.102399826049805-1.173000335693359-1.019599914550781-1.173299789428711-.951999664306641-.000300407409668-1.360099792480469,.356599807739258-1.44529914855957,.951600074768066l.917999267578125,.000300407409668c.05109977722168-.23799991607666,.238100051879883-.271900177001953,.374099731445312-.271900177001953,.101999282836914,0,.305999755859375,.034099578857422,.271900177001953,.238100051879883-.085199356079102,.527000427246094-1.700000762939453-.05150032043457-1.887399673461914,1.223400115966797-.085199356079102,.595000267028809,.271699905395508,.850099563598633,.73069953918457,.850199699401855,.357000350952148,.000100135803223,.645999908447266-.084799766540527,.95210075378418-.390700340270996l-.000099182128906,.305999755859375c.000099182128906-.000100135803223,.969099044799805,.000200271606445,.969099044799805,.000200271606445Zm-1.427799224853516-.561400413513184c-.187000274658203-.000100135803223-.288999557495117-.102100372314453-.271900177001953-.238100051879883,.05109977722168-.37399959564209,.459100723266602-.288900375366211,.782100677490234-.458800315856934-.017101287841797,.391000747680664-.170202255249023,.697000503540039-.510200500488281,.696900367736816"/>
  <path class="cls-5" d="M17.643100738525391,19.397600173950195l-.000099182128906,.305999755859375,.000099182128906-.305999755859375Z"/>
  <path class="cls-1" d="M17.643100738525391,19.397600173950195v-.034000396728516c3.706300735473633-.899900436401367,6.461299896240234-4.230999946594238,6.462499618530273-8.208999633789062,.001399993896484-4.657999992370605-3.771400451660156-8.450099945068359-8.446399688720703-8.451600074768066-3.604000091552734-.001100063323975-6.681699752807617,2.258999824523926-7.889599800109863,5.420599937438965l2.635000228881836,.000800132751465c1.054599761962891-1.818699836730957,3.009900093078613-3.042099952697754,5.253899574279785-3.041399955749512,3.3489990234375,.000999927520752,6.068199157714844,2.721799850463867,6.06719970703125,6.070799827575684s-2.721799850463867,6.06820011138916-6.070799827575684,6.067200660705566c-2.345999717712402-.000699996948242-4.385600090026855-1.344300270080566-5.404999732971191-3.299599647521973l-2.566999912261963-.000800132751465c.934199810028076,2.703300476074219,3.19450044631958,4.777999877929688,5.999300479888916,5.441799163818359l-.000900268554688,3.076999664306641-1.326000213623047-.000400543212891-.000900268554688,3.076999664306641,1.326000213623047,.000400543212891-.000399589538574,1.343000411987305,3.977999687194824,.001199722290039,.000400543212891-1.343000411987305,1.326000213623047,.000400543212891,.000900268554688-3.076999664306641-1.326000213623047-.000400543212891,.000099182128906-.238000869750977c-.000101089477539,.000001907348633-.016300201416016-2.804998397827148-.016300201416016-2.804998397827148Z"/>
  <path class="cls-4" d="M13.325099945068359,19.617300033569336l-.000699996948242,2.413999557495117c-4.13070011138916-.885299682617188-7.427800178527832-4.065299987792969-8.463500022888184-8.128600120544434l2.447999954223633,.000699996948242c.917099952697754,2.771300315856934,3.177400588989258,4.931000709533691,6.016200065612793,5.713900566101074ZM25.841899871826172,3.777100086212158l-1.020299911499023,1.019700050354004c1.257499694824219,1.8024001121521,1.987800598144531,3.99560022354126,1.987100601196289,6.341599941253662-.00160026550293,5.355000495910645-3.777000427246094,9.824898719787598-8.809299468994141,10.894299507141113l.000699996948242-2.413999557495117c3.723299026489258-1.018899917602539,6.461299896240234-4.434999465942383,6.462600708007812-8.480999946594238,.001499176025391-4.84499979019165-3.924299240112305-8.790200233459473-8.786299705505371-8.79170036315918-3.790999412536621-.001199960708618-7.021699905395508,2.394900321960449-8.263799667358398,5.760499954223633l-2.482000350952148-.000800132751465C6.257999897003174,3.431099891662598,10.560000419616699-.001599999959581,15.659999847412109,0c2.362998962402344,.000699999975041,4.538799285888672,.732400000095367,6.340400695800781,1.990900039672852l1.020299911499023-1.019700050354004L22.069000244140625,.002000000094995l4.72599983215332,.001399999950081-.001399993896484,4.725999681046233-.951700210571289-.95229959487915h0Z"/>
</svg>
